<svg xmlns="http://www.w3.org/2000/svg" viewBox="0 0 45 45">
  <defs>
    <linearGradient id="g" x1="0%" y1="0%" x2="100%" y2="100%">
      <stop offset="0%" stop-color="#FFE566"/>
      <stop offset="60%" stop-color="#D4AF37"/>
      <stop offset="100%" stop-color="#8B6914"/>
    </linearGradient>
  </defs>
  <circle cx="7"    cy="11.5" r="4"   fill="url(#g)" stroke="#7A5800" stroke-width="1.3"/>
  <circle cx="22.5" cy="6.5"  r="4"   fill="url(#g)" stroke="#7A5800" stroke-width="1.3"/>
  <circle cx="38"   cy="11.5" r="4"   fill="url(#g)" stroke="#7A5800" stroke-width="1.3"/>
  <circle cx="13.5" cy="8.5"  r="3.2" fill="url(#g)" stroke="#7A5800" stroke-width="1.2"/>
  <circle cx="31.5" cy="8.5"  r="3.2" fill="url(#g)" stroke="#7A5800" stroke-width="1.2"/>
  <path d="M7 14 L10 31 Q16.5 27.5 22.5 29.5 Q28.5 27.5 35 31 L38 14 L31.5 22 L22.5 10 L13.5 22 Z"
    fill="url(#g)" stroke="#7A5800" stroke-width="1.4" stroke-linejoin="round"/>
  <path d="M10 31 Q16.5 34.5 22.5 33.5 Q28.5 34.5 35 31 L35 34.5 Q28.5 37.5 22.5 36.5 Q16.5 37.5 10 34.5 Z"
    fill="url(#g)" stroke="#7A5800" stroke-width="1.2"/>
  <rect x="8" y="34.5" width="29" height="4.5" rx="2.2" fill="url(#g)" stroke="#7A5800" stroke-width="1.4"/>
</svg>
