<svg xmlns="http://www.w3.org/2000/svg" viewBox="0 0 64 64">
  <defs>
    <radialGradient id="stone" cx="50%" cy="38%" r="62%">
      <stop offset="0" stop-color="#19150f"/>
      <stop offset=".7" stop-color="#0d0b08"/>
      <stop offset="1" stop-color="#030302"/>
    </radialGradient>
    <linearGradient id="gold" x1="18%" y1="0" x2="82%" y2="100%">
      <stop offset="0" stop-color="#f1d889"/>
      <stop offset=".35" stop-color="#c8983c"/>
      <stop offset=".72" stop-color="#7c531c"/>
      <stop offset="1" stop-color="#e2b85c"/>
    </linearGradient>
    <filter id="shadow" x="-20%" y="-20%" width="140%" height="140%">
      <feDropShadow dx="0" dy="2" stdDeviation="1.35" flood-color="#000" flood-opacity=".85"/>
    </filter>
  </defs>
  <circle cx="32" cy="32" r="30" fill="url(#stone)"/>
  <circle cx="32" cy="32" r="29" fill="none" stroke="url(#gold)" stroke-width="3"/>
  <circle cx="32" cy="32" r="24" fill="none" stroke="#6f4919" stroke-width="1.4" opacity=".8"/>
  <circle cx="32" cy="32" r="19" fill="none" stroke="#2f2414" stroke-width="7" opacity=".55"/>
  <g fill="url(#gold)" filter="url(#shadow)">
    <path d="M30.4 6.5h3.2v6h6v3.2h-6v7.1h-3.2v-7.1h-6v-3.2h6v-6Z"/>
    <path d="M21 54h22v-5H21v5Zm3.4-8h15.2l-2.7-22H27.1l-2.7 22Z"/>
    <path d="M25.1 24c.5-5.2 3.4-8.6 6.9-8.6s6.4 3.4 6.9 8.6H25.1Z"/>
    <path d="M23.8 30.2h16.4v3.4H23.8v-3.4Zm1.1 7.9h14.2v3.5H24.9v-3.5Z" opacity=".96"/>
  </g>
  <path d="M15 17c4.8-5.2 10.5-7.8 17-7.8s12.2 2.6 17 7.8" fill="none" stroke="#c8983c" stroke-width="2" stroke-linecap="round" opacity=".62"/>
  <path d="M14 48c5.1 4.5 11.1 6.8 18 6.8s12.9-2.3 18-6.8" fill="none" stroke="#8b6520" stroke-width="2" stroke-linecap="round" opacity=".55"/>
</svg>
