<svg xmlns="http://www.w3.org/2000/svg" viewBox="0 0 64 64">
  <defs>
    <radialGradient id="stone" cx="50%" cy="38%" r="62%">
      <stop offset="0" stop-color="#19150f"/>
      <stop offset=".7" stop-color="#0d0b08"/>
      <stop offset="1" stop-color="#030302"/>
    </radialGradient>
    <linearGradient id="gold" x1="18%" y1="0" x2="82%" y2="100%">
      <stop offset="0" stop-color="#f1d889"/>
      <stop offset=".35" stop-color="#c8983c"/>
      <stop offset=".72" stop-color="#7c531c"/>
      <stop offset="1" stop-color="#e2b85c"/>
    </linearGradient>
    <filter id="shadow" x="-20%" y="-20%" width="140%" height="140%">
      <feDropShadow dx="0" dy="2" stdDeviation="1.2" flood-color="#000" flood-opacity=".8"/>
    </filter>
  </defs>
  <circle cx="32" cy="32" r="30" fill="url(#stone)"/>
  <circle cx="32" cy="32" r="29" fill="none" stroke="url(#gold)" stroke-width="3"/>
  <circle cx="32" cy="32" r="24" fill="none" stroke="#6f4919" stroke-width="1.5" opacity=".85"/>
  <path d="M16 34c4 3 8 3 12 0 3 2 5 2 8 0 4 3 8 3 12 0" fill="none" stroke="#8b6520" stroke-width="2" stroke-linecap="round" opacity=".75"/>
  <g fill="url(#gold)" filter="url(#shadow)">
    <path d="M13 31h10v16H13V31Zm2-7h2v3h2v-3h2v3h2v5H13v-5h2v-3Zm3 13c-1.2 0-2 .9-2 2v5h4v-5c0-1.1-.8-2-2-2Z" opacity=".85"/>
    <path d="M41 31h10v16H41V31Zm2-7h2v3h2v-3h2v3h2v5H41v-5h2v-3Zm3 13c-1.2 0-2 .9-2 2v5h4v-5c0-1.1-.8-2-2-2Z" opacity=".85"/>
    <path d="M31 8h3v5h5v3h-5v6h-3v-6h-5v-3h5V8Z"/>
    <path d="M23 51h18v-5H23v5Zm3-8h12l-2.4-20h-7.2L26 43Z"/>
    <path d="M26 23c.4-4.6 3-7.5 6-7.5s5.6 2.9 6 7.5H26Z"/>
    <path d="M24 30h16v3H24v-3Zm1 8h14v3H25v-3Z" opacity=".95"/>
  </g>
  <path d="M14 14c5-4 11-6 18-6s13 2 18 6" fill="none" stroke="#c8983c" stroke-width="2" stroke-linecap="round" opacity=".7"/>
  <path d="M17 54h30" stroke="#c8983c" stroke-width="2" stroke-linecap="round"/>
</svg>
